<?xml version="1.0" encoding="UTF-8"?>
<svg version="1.1" xmlns="http://www.w3.org/2000/svg" width="48" height="48">
<path d="M0 0 C2.97 0 5.94 0 9 0 C9.99 2.31 10.98 4.62 12 7 C12.33 4.69 12.66 2.38 13 0 C20.92 0 28.84 0 37 0 C37.020625 3.444375 37.04125 6.88875 37.0625 10.4375 C37.071604 11.52474365 37.08070801 12.6119873 37.09008789 13.73217773 C37.09258545 14.58239502 37.09508301 15.4326123 37.09765625 16.30859375 C37.10289307 17.18314209 37.10812988 18.05769043 37.11352539 18.95874023 C37 21 37 21 36 22 C34.36527118 22.08700342 32.72685945 22.10701063 31.08984375 22.09765625 C30.10048828 22.09443359 29.11113281 22.09121094 28.09179688 22.08789062 C27.05087891 22.07951172 26.00996094 22.07113281 24.9375 22.0625 C23.89271484 22.05798828 22.84792969 22.05347656 21.77148438 22.04882812 C19.1809334 22.03699913 16.59049441 22.02051689 14 22 C14.33 22.99 14.66 23.98 15 25 C21.27 25.33 27.54 25.66 34 26 C34 29.3 34 32.6 34 36 C32.02 36 30.04 36 28 36 C28 34.02 28 32.04 28 30 C25.03 30 22.06 30 19 30 C19 31.98 19 33.96 19 36 C17.02 36 15.04 36 13 36 C13 34.02 13 32.04 13 30 C12.35160156 29.79246094 11.70320313 29.58492187 11.03515625 29.37109375 C10.02775391 28.69240234 10.02775391 28.69240234 9 28 C8.49609375 25.34765625 8.49609375 25.34765625 8.4375 22.0625 C8.15332525 15.68277676 6.93323846 10.0672075 5 4 C3.35 4 1.7 4 0 4 C0 2.68 0 1.36 0 0 Z " fill="#FA9500" transform="translate(5,6)"/>
<path d="M0 0 C2.97 0 5.94 0 9 0 C9.65601744 1.51646821 10.2992664 3.03846175 10.9375 4.5625 C11.29714844 5.40941406 11.65679687 6.25632812 12.02734375 7.12890625 C13 10 13 10 14 17 C21.59 17.33 29.18 17.66 37 18 C36.67 19.32 36.34 20.64 36 22 C28.74 22 21.48 22 14 22 C14.33 22.99 14.66 23.98 15 25 C21.27 25.33 27.54 25.66 34 26 C34 29.3 34 32.6 34 36 C32.02 36 30.04 36 28 36 C28 34.02 28 32.04 28 30 C25.03 30 22.06 30 19 30 C19 31.98 19 33.96 19 36 C17.02 36 15.04 36 13 36 C13 34.02 13 32.04 13 30 C12.35160156 29.79246094 11.70320313 29.58492187 11.03515625 29.37109375 C10.02775391 28.69240234 10.02775391 28.69240234 9 28 C8.49609375 25.34765625 8.49609375 25.34765625 8.4375 22.0625 C8.15332525 15.68277676 6.93323846 10.0672075 5 4 C3.35 4 1.7 4 0 4 C0 2.68 0 1.36 0 0 Z " fill="#009587" transform="translate(5,6)"/>
<path d="M0 0 C1.98 0 3.96 0 6 0 C6 1.98 6 3.96 6 6 C4.02 6 2.04 6 0 6 C0 4.02 0 2.04 0 0 Z " fill="#384D54" transform="translate(33,36)"/>
<path d="M0 0 C1.98 0 3.96 0 6 0 C6 1.98 6 3.96 6 6 C4.02 6 2.04 6 0 6 C0 4.02 0 2.04 0 0 Z " fill="#384D54" transform="translate(18,36)"/>
</svg>
